<svg xmlns="http://www.w3.org/2000/svg" width="66" height="66" viewBox="0 0 66 66"><g transform="translate(-515.271 -296)"><rect width="66" height="66" rx="8" transform="translate(515.271 296)" fill="#50abf1"/><path d="M30.908,10.354c.022.306.022.612.022.918,0,9.333-7.1,20.088-20.088,20.088A19.952,19.952,0,0,1,0,28.19a14.6,14.6,0,0,0,1.7.087,14.14,14.14,0,0,0,8.765-3.016,7.073,7.073,0,0,1-6.6-4.9,8.9,8.9,0,0,0,1.333.109,7.467,7.467,0,0,0,1.858-.24A7.061,7.061,0,0,1,1.4,13.3v-.087a7.11,7.11,0,0,0,3.191.9A7.071,7.071,0,0,1,2.4,4.67a20.068,20.068,0,0,0,14.558,7.388,7.97,7.97,0,0,1-.175-1.617A7.067,7.067,0,0,1,29.006,5.61a13.9,13.9,0,0,0,4.481-1.7,7.041,7.041,0,0,1-3.1,3.891A14.154,14.154,0,0,0,34.449,6.7a15.177,15.177,0,0,1-3.541,3.65Z" transform="translate(531.047 312.824)" fill="#fff"/></g></svg>