<svg xmlns="http://www.w3.org/2000/svg" width="66" height="66" viewBox="0 0 66 66"><g transform="translate(-743.271 -296)"><rect width="66" height="66" rx="8" transform="translate(743.271 296)" fill="#2ca4d7"/><path d="M33.748,7.112,28.641,31.2c-.385,1.7-1.39,2.123-2.818,1.322l-7.782-5.734L14.286,30.4a1.954,1.954,0,0,1-1.564.763l.559-7.925L27.7,10.2c.627-.559-.136-.869-.975-.31L8.9,21.119l-7.676-2.4c-1.67-.521-1.7-1.67.348-2.47L31.595,4.679c1.39-.521,2.606.31,2.153,2.433Z" transform="translate(756.308 310.781)" fill="#fff"/></g></svg>