<svg xmlns="http://www.w3.org/2000/svg" width="66" height="66" viewBox="0 0 66 66"><g transform="translate(-937 -296)"><rect width="66" height="66" rx="8" transform="translate(937 296)" fill="#7188d8"/><path d="M23.014,49.929h0a15.378,15.378,0,0,1-9-3.006,10.937,10.937,0,0,1-2.662-2.805,49.924,49.924,0,0,1,2.753-15.76A45.152,45.152,0,0,1,16.86,21.83a19.02,19.02,0,0,1,10.7-4.014H27.6l.383.458a31.678,31.678,0,0,0-7.608,3.25,15.827,15.827,0,0,0-2.444,1.756l.041-.023c.821-.433,1.656-.829,2.212-1.084A33.209,33.209,0,0,1,33.436,19.4a31.921,31.921,0,0,1,15.307,3.885A15.7,15.7,0,0,0,46.421,21.6a31.2,31.2,0,0,0-7.2-3.173l.535-.611H39.8A19.022,19.022,0,0,1,50.5,21.83a45.047,45.047,0,0,1,2.753,6.528,49.925,49.925,0,0,1,2.753,15.76,11.069,11.069,0,0,1-2.681,2.805,15.47,15.47,0,0,1-9.017,3.006c-.015-.017-1.4-1.672-2.524-3.1a13.82,13.82,0,0,0,5.338-2.805,8.575,8.575,0,0,0,1.582-1.744,21.918,21.918,0,0,1-4.4,2.255A26.787,26.787,0,0,1,33.878,46.6a27.883,27.883,0,0,1-13.425-3.4c-.019-.013-.086-.051-.189-.11-.31-.178-.953-.548-1.379-.846a8.331,8.331,0,0,0,1.524,1.711,13.634,13.634,0,0,0,5.166,2.8c-1.136,1.438-2.547,3.156-2.561,3.173ZM40.486,32.075a3.72,3.72,0,0,0-2.767,1.247,4.421,4.421,0,0,0-1.133,3,4.087,4.087,0,0,0,3.9,4.243,3.72,3.72,0,0,0,2.767-1.247,4.529,4.529,0,0,0,0-5.992A3.72,3.72,0,0,0,40.486,32.075Zm-13.954,0a3.72,3.72,0,0,0-2.767,1.247,4.421,4.421,0,0,0-1.132,3,4.087,4.087,0,0,0,3.9,4.243A3.719,3.719,0,0,0,29.3,39.315a4.422,4.422,0,0,0,1.132-3,4.328,4.328,0,0,0-1.213-3.1A3.752,3.752,0,0,0,26.532,32.075Z" transform="translate(936.646 295.185)" fill="#fff"/></g></svg>