<svg xmlns="http://www.w3.org/2000/svg" xmlns:xlink="http://www.w3.org/1999/xlink" viewBox="0 0 237.52 63.87"><defs><linearGradient id="linear-gradient" x1="11.2" y1="22.95" x2="60.38" y2="-5.44" gradientUnits="userSpaceOnUse"><stop offset="0" stop-color="#005193"/><stop offset="0.79" stop-color="#b02861"/><stop offset="1" stop-color="#df1d54"/></linearGradient><linearGradient id="linear-gradient-2" x1="22.95" y1="39.39" x2="48.98" y2="24.36" xlink:href="#linear-gradient"/></defs><g id="Layer_2" data-name="Layer 2"><g id="Layer_1-2" data-name="Layer 1"><path d="M59.48,2.8l9.31,11.91H12.11L2.8,2.8H59.48m0-2.8H2.8A2.8,2.8,0,0,0,.59,4.52L9.9,16.44a2.8,2.8,0,0,0,2.21,1.07H68.79A2.8,2.8,0,0,0,71,13L61.68,1.08A2.79,2.79,0,0,0,59.48,0Z" fill="url(#linear-gradient)"/><path d="M29.9,2.8,41.81,17.55V61.07L29.9,45.82V2.8m0-2.8A2.72,2.72,0,0,0,29,.16,2.8,2.8,0,0,0,27.1,2.8v43a2.85,2.85,0,0,0,.59,1.73L39.61,62.8a2.79,2.79,0,0,0,2.2,1.07,2.91,2.91,0,0,0,.92-.15,2.79,2.79,0,0,0,1.88-2.65V17.55A2.76,2.76,0,0,0,44,15.79L32.08,1A2.8,2.8,0,0,0,29.9,0Z" fill="url(#linear-gradient-2)"/><path d="M121.73,16.61v4.26h-8.49V48.5H108V20.87H99.47V16.61ZM150,37.8H130.68a7,7,0,0,0,2.25,4.87,7.11,7.11,0,0,0,4.95,1.84,6.13,6.13,0,0,0,6-3.53h5.65a11.39,11.39,0,0,1-4.16,5.7,12.14,12.14,0,0,1-7.46,2.23,12.87,12.87,0,0,1-6.49-1.63,11.6,11.6,0,0,1-4.5-4.58,14.12,14.12,0,0,1-1.63-6.87A14.3,14.3,0,0,1,126.85,29a11.14,11.14,0,0,1,4.45-4.57,13.25,13.25,0,0,1,6.58-1.6,12.86,12.86,0,0,1,6.38,1.56,11,11,0,0,1,4.36,4.38,13.22,13.22,0,0,1,1.56,6.5A16.48,16.48,0,0,1,150,37.8Zm-5.28-4.21A6,6,0,0,0,142.66,29a7.42,7.42,0,0,0-5-1.75A6.75,6.75,0,0,0,133,28.92a7.23,7.23,0,0,0-2.3,4.67ZM173.43,24a8.71,8.71,0,0,1,3.69,3.67,12.05,12.05,0,0,1,1.33,5.88V48.5h-5.18V34.36a7.36,7.36,0,0,0-1.7-5.21,6,6,0,0,0-4.63-1.81,6.12,6.12,0,0,0-4.66,1.81,7.28,7.28,0,0,0-1.72,5.21V48.5h-5.23V23.21h5.23V26.1a8.59,8.59,0,0,1,3.28-2.43,10.48,10.48,0,0,1,4.24-.87A11.29,11.29,0,0,1,173.43,24ZM208.1,37.8H188.78A7,7,0,0,0,191,42.67a7.13,7.13,0,0,0,5,1.84A6.12,6.12,0,0,0,202,41h5.65a11.33,11.33,0,0,1-4.16,5.7A12.13,12.13,0,0,1,196,48.91a12.88,12.88,0,0,1-6.5-1.63A11.51,11.51,0,0,1,185,42.7a14,14,0,0,1-1.63-6.87A14.29,14.29,0,0,1,185,29a11.14,11.14,0,0,1,4.45-4.57A13.26,13.26,0,0,1,196,22.8a12.91,12.91,0,0,1,6.38,1.56,11.07,11.07,0,0,1,4.36,4.38,13.22,13.22,0,0,1,1.56,6.5A15.27,15.27,0,0,1,208.1,37.8Zm-5.27-4.21A6,6,0,0,0,200.76,29a7.4,7.4,0,0,0-5-1.75,6.77,6.77,0,0,0-4.64,1.72,7.22,7.22,0,0,0-2.29,4.67Zm15.09,13.69a11.69,11.69,0,0,1-4.54-4.58,13.91,13.91,0,0,1-1.65-6.87,13.61,13.61,0,0,1,1.7-6.84,11.68,11.68,0,0,1,4.63-4.59,14.27,14.27,0,0,1,13.13,0A11.68,11.68,0,0,1,235.82,29a13.51,13.51,0,0,1,1.7,6.84,13.33,13.33,0,0,1-1.74,6.84A12,12,0,0,1,231,47.28a13.68,13.68,0,0,1-6.63,1.63A12.94,12.94,0,0,1,217.92,47.28Zm10.26-3.87a7.38,7.38,0,0,0,2.87-2.89,9.38,9.38,0,0,0,1.1-4.69,9.49,9.49,0,0,0-1.05-4.65,7.17,7.17,0,0,0-2.8-2.87,7.62,7.62,0,0,0-3.77-1,7.48,7.48,0,0,0-3.74,1,7,7,0,0,0-2.73,2.87,9.83,9.83,0,0,0-1,4.65,8.86,8.86,0,0,0,2.09,6.31,6.89,6.89,0,0,0,5.26,2.23A7.78,7.78,0,0,0,228.18,43.41Z" fill="#df1d54"/></g></g></svg>