<svg xmlns="http://www.w3.org/2000/svg" xmlns:xlink="http://www.w3.org/1999/xlink" width="96" height="96" viewBox="0 0 96 96"><defs><linearGradient id="a" x1="0.5" x2="0.5" y2="1" gradientUnits="objectBoundingBox"><stop offset="0" stop-color="#005193"/><stop offset="0.03" stop-color="#084f91"/><stop offset="0.39" stop-color="#633a77"/><stop offset="0.68" stop-color="#a62a64"/><stop offset="0.89" stop-color="#cf2158"/><stop offset="1" stop-color="#df1d54"/></linearGradient><linearGradient id="b" x1="0.158" y1="1.344" x2="0.842" y2="-0.344" xlink:href="#a"/><linearGradient id="c" x1="-0.255" y1="0.615" x2="1.268" y2="0.383" xlink:href="#a"/></defs><g transform="translate(-221.941 -285.334)"><circle cx="48" cy="48" r="48" transform="translate(221.941 285.334)" fill="url(#a)"/><circle cx="45" cy="45" r="45" transform="translate(224.941 288.334)" fill="#fff"/><g transform="translate(243.851 313.762)"><path d="M43.889,1.719l6.925,8.864H8.643L1.717,1.719H43.889m0-1.719H1.717A1.719,1.719,0,0,0,.363,2.777l6.926,8.864a1.717,1.717,0,0,0,1.354.66H50.814a1.718,1.718,0,0,0,1.354-2.776L45.243.66A1.721,1.721,0,0,0,43.889,0Z" transform="translate(0.002)" fill="url(#b)"/><path d="M301.148,1.719l8.864,10.972V45.073l-8.864-11.345V1.719m0-1.719a1.719,1.719,0,0,0-1.718,1.719V33.728a1.715,1.715,0,0,0,.364,1.058l8.863,11.345a1.719,1.719,0,0,0,3.073-1.058V12.691a1.72,1.72,0,0,0-.381-1.078L302.485.639A1.717,1.717,0,0,0,301.147,0Z" transform="translate(-279.256 0)" fill="url(#c)"/></g></g></svg>