<svg xmlns="http://www.w3.org/2000/svg" width="17.79" height="26.204" viewBox="0 0 17.79 26.204">
  <defs>
    <style>
      .cls-1 {
        fill: #222;
      }
    </style>
  </defs>
  <g id="Icon_ionic-ios-swap" data-name="Icon ionic-ios-swap" transform="translate(17.79) rotate(90)">
    <path id="Pfad_3" data-name="Pfad 3" class="cls-1" d="M11.171,9.5a.759.759,0,0,1-.006-1.077l2.762-2.8H.761a.761.761,0,1,1,0-1.521H13.921L11.159,1.3A.761.761,0,1,1,12.242.225l4.038,4.1h0a.744.744,0,0,1,.158.24.726.726,0,0,1,.059.293.763.763,0,0,1-.217.533l-4.038,4.1A.752.752,0,0,1,11.171,9.5Z" transform="translate(9.708 0)"/>
    <path id="Pfad_4" data-name="Pfad 4" class="cls-1" d="M5.325,9.5a.759.759,0,0,0,.006-1.077L2.575,5.62H15.735a.761.761,0,1,0,0-1.521H2.575L5.337,1.3A.761.761,0,0,0,4.254.225L.217,4.321h0a.744.744,0,0,0-.158.24A.726.726,0,0,0,0,4.853a.763.763,0,0,0,.217.533l4.038,4.1A.752.752,0,0,0,5.325,9.5Z" transform="translate(0 8.075)"/>
  </g>
</svg>
